<svg width="96" height="96" xmlns="http://www.w3.org/2000/svg" xmlns:xlink="http://www.w3.org/1999/xlink" xml:space="preserve" overflow="hidden"><g transform="translate(-275 -207)"><path d="M279.006 211 279.006 299 367.006 299ZM285.006 283 289.006 283 289.006 279 285.006 279 285.006 269 289.006 269 289.006 265 285.006 265 285.006 255 289.006 255 289.006 251 285.006 251 285.006 241 289.006 241 289.006 237 285.006 237 285.006 225.485 352.521 293 341.006 293 341.006 289 337.006 289 337.006 293 327.006 293 327.006 289 323.006 289 323.006 293 313.006 293 313.006 289 309.006 289 309.006 293 299.006 293 299.006 289 295.006 289 295.006 293 285.006 293Z" fill="#6D62D2"/><path d="M297.006 250 297.006 281 328.006 281ZM303.006 264.485 313.521 275 303.006 275Z" fill="#6D62D2"/></g></svg>