<svg width="330" height="330" xmlns="http://www.w3.org/2000/svg" xmlns:xlink="http://www.w3.org/1999/xlink" xml:space="preserve" overflow="hidden"><g transform="translate(-2621 -864)"><g><g><g><path d="M234.637 116.389 240.292 111.866 240.051 110.151C237.356 91.9647 222.714 71.5673 192.251 64.6323 190.608 64.2862 188.994 65.3383 188.649 66.9823 188.605 67.1898 188.583 67.4012 188.583 67.6132L188.583 73.6752C188.608 75.0427 189.568 76.2144 190.904 76.507 205.361 80.0749 215.335 95.487 216.299 114.634L221.816 207.296C222.066 211.503 218.859 215.116 214.651 215.367 214.623 215.368 214.594 215.37 214.565 215.371L214.237 215.371C209.873 215.152 206.472 211.506 206.556 207.137L206.556 156.95C206.556 143.511 195.662 132.617 182.223 132.617L176.417 132.617 176.417 60.8333C176.417 50.7541 168.246 42.5833 158.167 42.5833L85.1666 42.5833C75.0874 42.5833 66.9166 50.7541 66.9166 60.8333L66.9166 231.167 54.75 231.167 54.75 249.417 188.583 249.417 188.583 231.167 176.417 231.167 176.417 150.867 182.223 150.867C185.583 150.867 188.306 153.59 188.306 156.95L188.306 206.778C188.158 215.741 192.511 224.182 199.898 229.259 211.779 237.181 227.831 233.971 235.752 222.09 238.877 217.403 240.386 211.824 240.048 206.201ZM85.1666 60.8333 158.167 60.8333 158.167 115.583 85.1666 115.583Z" fill="#6D62D2" transform="matrix(1.13014 0 0 1 2621 902)"/></g></g></g><g><g><g><path d="M30.9911 6.45836C17.4442 6.458 6.46197 17.4396 6.46159 30.9866 6.4612 44.5335 17.4429 55.5156 30.9898 55.516 44.5367 55.5164 55.5189 44.5348 55.5193 30.9878 55.5193 30.987 55.5193 30.9861 55.5193 30.9853 55.5242 17.4444 44.5513 6.46333 31.0104 6.45836 31.004 6.45835 30.9975 6.45835 30.9911 6.45836ZM37.4804 38.4479C37.0292 39.2497 36.4021 39.9389 35.6463 40.4635 34.8282 41.0283 33.9175 41.4455 32.9557 41.6964 31.9028 41.9795 30.8168 42.1202 29.7265 42.1149 28.6263 42.1188 27.5282 42.0217 26.4457 41.825 25.5394 41.6789 24.663 41.3857 23.8514 40.957L23.8514 37.6522C24.7132 38.2539 25.6755 38.697 26.693 38.9607 27.7166 39.241 28.7726 39.3853 29.8337 39.3895 30.3449 39.3859 30.8547 39.3355 31.3566 39.239 31.888 39.1435 32.3994 38.9588 32.8692 38.6927 33.3345 38.4271 33.7311 38.0562 34.0271 37.6096 34.3508 37.0898 34.511 36.4848 34.487 35.8729 34.5059 35.2473 34.3543 34.6282 34.0485 34.082 33.7499 33.5842 33.3291 33.1709 32.8259 32.8814 32.2531 32.5554 31.6299 32.327 30.982 32.2059 30.2223 32.0581 29.4497 31.9863 28.6758 31.9915L26.6827 31.9915 26.6827 29.2467 28.5698 29.2467C29.2575 29.2517 29.9439 29.1868 30.6184 29.0529 31.1893 28.9448 31.7349 28.7303 32.2266 28.4206 32.6659 28.1394 33.0273 27.7521 33.2773 27.2943 33.5413 26.7774 33.6704 26.2023 33.6526 25.6222 33.6741 25.0956 33.552 24.573 33.2993 24.1103 33.0785 23.7331 32.7679 23.4163 32.3951 23.1881 32.0283 22.9657 31.6252 22.8096 31.2042 22.727 30.7951 22.643 30.3786 22.5997 29.961 22.5978 29.061 22.6061 28.1663 22.7365 27.3014 22.9853 26.4002 23.2298 25.5454 23.6208 24.771 24.1426L24.771 21.1001C25.5739 20.6746 26.4311 20.3607 27.3188 20.1669 28.287 19.9551 29.2755 19.8509 30.2664 19.8562 31.1517 19.8546 32.0339 19.9589 32.8943 20.1669 33.6965 20.3545 34.4609 20.6773 35.1548 21.1214 35.7985 21.5362 36.3379 22.0938 36.7313 22.7509 37.1376 23.4615 37.3413 24.2699 37.3203 25.0881 37.3714 26.3745 36.9308 27.6321 36.088 28.6054 35.1855 29.5658 34.0039 30.2183 32.7103 30.4705 33.4108 30.5429 34.097 30.717 34.7472 30.9872 35.3864 31.248 35.9774 31.6141 36.4955 32.0703 36.9985 32.5154 37.4098 33.0545 37.7065 33.6571 38.0111 34.2812 38.1659 34.9679 38.1586 35.6624 38.1788 36.6341 37.9451 37.5942 37.4804 38.4479Z" fill="#6D62D2" transform="matrix(1.12902 0 0 1 2722 864)"/></g></g></g><g><g><g><path d="M30.9866 6.45836C17.44 6.45836 6.45836 17.44 6.45836 30.9866 6.45836 44.5331 17.44 55.5147 30.9866 55.5147 44.5331 55.5147 55.5147 44.5331 55.5147 30.9866 55.5147 30.9857 55.5147 30.9848 55.5147 30.984 55.5197 17.4438 44.5474 6.46333 31.0072 6.45836 31.0003 6.45835 30.9935 6.45835 30.9866 6.45836ZM38.3723 37.0348C38.0443 37.9163 37.5373 38.7202 36.883 39.396 36.2152 40.0698 35.4107 40.5926 34.5238 40.9292 33.524 41.3066 32.462 41.4922 31.3934 41.4762 30.1034 41.5166 28.8251 41.2211 27.6837 40.6185 26.7004 40.0755 25.8595 39.3076 25.2296 38.3775 24.5954 37.4271 24.1378 36.3702 23.8785 35.2575 23.6015 34.113 23.4615 32.9397 23.4613 31.7622 23.4619 30.7627 23.5513 29.7653 23.7287 28.7817 23.9037 27.7931 24.1732 26.8236 24.5334 25.8864 24.8848 24.9683 25.3414 24.094 25.8941 23.2811 26.4352 22.4826 27.0891 21.7667 27.8355 21.1556 28.5922 20.5405 29.4478 20.0583 30.3659 19.7296 31.3784 19.3744 32.4453 19.1995 33.5182 19.213 34.9076 19.1614 36.2926 19.3958 37.5876 19.9014L37.5876 22.8626C36.3435 22.2433 34.9732 21.9197 33.5835 21.9171 32.4935 21.8819 31.4142 22.1416 30.4595 22.6688 29.6296 23.1513 28.9223 23.8191 28.3929 24.6199 27.847 25.4588 27.4549 26.3883 27.2349 27.3647 26.993 28.3836 26.8707 29.4272 26.8706 30.4744L26.9352 30.4744C27.1896 30.0347 27.4914 29.6242 27.8355 29.2505 28.1812 28.8764 28.5739 28.5486 29.0038 28.2753 29.4472 27.9929 29.9272 27.7728 30.4305 27.6211 30.966 27.4609 31.5223 27.3815 32.0812 27.3854 33.0307 27.3732 33.9736 27.5443 34.8583 27.8891 35.663 28.2046 36.3961 28.6785 37.0141 29.2828 37.6192 29.8836 38.0937 30.6027 38.4078 31.3954 38.7405 32.2355 38.9071 33.132 38.8987 34.0355 38.9092 35.0592 38.7308 36.0759 38.3723 37.0348Z" fill="#6D62D2" transform="matrix(1.12903 0 0 1 2790 864)"/><path d="M34.2881 31.1293C33.9075 30.7812 33.458 30.5172 32.9686 30.3543 32.4815 30.1909 31.9711 30.1076 31.4574 30.1076 30.9075 30.1091 30.3625 30.2108 29.8492 30.4079 29.3255 30.6046 28.842 30.8952 28.4226 31.2656 27.9958 31.6448 27.6462 32.1029 27.3931 32.6147 27.1223 33.1693 26.9862 33.78 26.9959 34.3972 26.9924 34.9639 27.0902 35.5266 27.2846 36.0589 27.4773 36.5785 27.7747 37.0528 28.1584 37.4527 28.558 37.8693 29.0399 38.1981 29.5735 38.4182 30.1867 38.6642 30.8432 38.7844 31.5039 38.7715 32.1226 38.7857 32.736 38.6529 33.2935 38.384 33.7821 38.1416 34.2133 37.7979 34.5587 37.3758 34.8966 36.9583 35.155 36.4821 35.3208 35.9711 35.4918 35.456 35.579 34.9167 35.5791 34.374 35.5954 33.7166 35.4748 33.0629 35.2252 32.4545 35.01 31.9515 34.6906 31.4998 34.2881 31.1293Z" fill="#6D62D2" transform="matrix(1.12903 0 0 1 2790 864)"/></g></g></g><g><g><g><path d="M30.9911 6.45836C17.4445 6.45836 6.46288 17.44 6.46288 30.9866 6.46288 44.5331 17.4445 55.5147 30.9911 55.5147 44.5376 55.5147 55.5193 44.5331 55.5193 30.9866 55.5193 30.9857 55.5193 30.9848 55.5193 30.984 55.5239 17.4435 44.5509 6.46301 31.0104 6.45836 31.004 6.45835 30.9975 6.45835 30.9911 6.45836ZM33.6816 41.3981 29.9506 41.3981 29.9506 23.5788C29.6355 23.7941 29.3029 24.0014 28.9528 24.2008 28.603 24.4008 28.2415 24.5797 27.8704 24.7368 27.4691 24.8944 27.0474 25.041 26.6052 25.1766 26.163 25.3122 25.6769 25.4444 25.1469 25.5732L25.1469 22.5926C25.5042 22.4923 25.8294 22.3922 26.1221 22.2923 26.4149 22.1924 26.7047 22.0923 26.9914 21.992 27.2762 21.8777 27.563 21.7601 27.8491 21.6381 28.1352 21.516 28.4206 21.3991 28.7068 21.2842 28.978 21.1412 29.2529 20.9983 29.5315 20.8553 29.81 20.7124 30.0856 20.5617 30.3582 20.4032 30.6596 20.2465 30.956 20.0743 31.2475 19.8866 31.5389 19.6988 31.8358 19.5266 32.1381 19.3699L33.6816 19.3699Z" fill="#6D62D2" transform="matrix(1.12902 0 0 1 2653 865)"/></g></g></g></g></svg>