<svg width="96" height="96" xmlns="http://www.w3.org/2000/svg" xmlns:xlink="http://www.w3.org/1999/xlink" xml:space="preserve" overflow="hidden"><g transform="translate(-613 -562)"><path d="M656 637 655.7 637C654.4 636.9 653.3 635.9 653 634.6L646.1 598 641.8 611C641.4 612.2 640.3 613 639 613L621 613 621 607 636.8 607 644.1 585.1C644.5 583.8 645.8 583 647.1 583.1 648.4 583.2 649.6 584.2 649.8 585.5L656.8 623 667 596C667.5 594.8 668.6 594 669.9 594.1 671.2 594.2 672.3 595 672.7 596.3L678.4 615 684.8 608C685.4 607.4 686.2 607 687 607L701 607 701 613 688.3 613 679.2 623C678.5 623.8 677.4 624.1 676.3 623.9 675.2 623.7 674.4 622.9 674.1 621.8L669.6 606.4 658.8 635.1C658.4 636.2 657.2 637 656 637Z" fill="#6D62D2"/></g></svg>