<svg width="96" height="96" xmlns="http://www.w3.org/2000/svg" xmlns:xlink="http://www.w3.org/1999/xlink" xml:space="preserve" overflow="hidden"><g transform="translate(-544 -624)"><path d="M634.6 704 595.5 636C594 633.3 590.1 633.3 588.6 636L549.4 704C547.9 706.7 549.8 710 552.9 710L592 710 631.1 710C634.2 710 636.1 706.7 634.6 704ZM589 652 595 652 595 687 589 687 589 652ZM592 701C589.2 701 587 698.8 587 696 587 693.2 589.2 691 592 691 594.8 691 597 693.2 597 696 597 698.8 594.8 701 592 701Z" fill="#6D62D2"/></g></svg>