<svg width="96" height="96" xmlns="http://www.w3.org/2000/svg" xmlns:xlink="http://www.w3.org/1999/xlink" xml:space="preserve" overflow="hidden"><g transform="translate(-537 -484)"><path d="M568 515 557 515 557 508 568 508 568 515ZM583 508 583 515 572 515 572 508 583 508ZM598 508 598 515 587 515 587 508 598 508ZM613 508 613 515 602 515 602 508 613 508ZM613 526 602 526 602 519 613 519 613 526ZM613 534.5 602 535.5 602 530 613 530 613 534.5ZM568 530 568 538.5 557 539.5 557 530 568 530ZM568 526 557 526 557 519 568 519 568 526ZM583 526 572 526 572 519 583 519 583 526ZM587 526 587 519 598 519 598 526 587 526ZM583 537.2 572 538.2 572 530 583 530 583 537.2ZM587 530 598 530 598 535.8 587 536.8 587 530ZM619 540 619 502 557 502 557 501C557 496 553 492 548 492 546.3 492 545 493.3 545 495 545 496.7 546.3 498 548 498 549.7 498 551 499.3 551 501L551 551C551 556 555 560 560 560L563 560 607 560 616 560C617.7 560 619 558.7 619 557 619 555.3 617.7 554 616 554L560 554C558.3 554 557 552.7 557 551L557 545.5 619 540Z" fill="#6D62D2"/><path d="M569 566C569 569.314 566.314 572 563 572 559.686 572 557 569.314 557 566 557 562.686 559.686 560 563 560 566.314 560 569 562.686 569 566Z" fill="#6D62D2"/><path d="M613 566C613 569.314 610.314 572 607 572 603.686 572 601 569.314 601 566 601 562.686 603.686 560 607 560 610.314 560 613 562.686 613 566Z" fill="#6D62D2"/></g></svg>