<svg width="96" height="96" xmlns="http://www.w3.org/2000/svg" xmlns:xlink="http://www.w3.org/1999/xlink" xml:space="preserve" overflow="hidden"><g transform="translate(-590 -408)"><path d="M675 467 675 441C675 434.4 669.6 429 663 429L605.2 429C604.3 429 603.4 429.4 602.8 430 601.9 431.1 601.8 432.7 602.7 433.8L612.2 446.1 616 481.3C616.2 482.8 617.5 484 619 484L653 484C654.5 484 655.8 482.8 656 481.3L660.3 439.5C660.4 438.1 661.6 437 663 437L663 437C665.2 437 667 438.8 667 441L668.5 461C668.8 464.4 671.6 467 675 467ZM611.1 435 654.7 435 653 452 618.8 452 618 444.7C617.9 444.2 617.7 443.6 617.4 443.2L611.1 435ZM642 468 642 472 630 472 630 468 642 468ZM630 462 630 458 642 458 642 462 630 462Z" fill="#584EAD"/><path d="M630 442 642 442 642 446 630 446Z" fill="#584EAD"/></g></svg>