<svg width="330" height="330" xmlns="http://www.w3.org/2000/svg" xmlns:xlink="http://www.w3.org/1999/xlink" xml:space="preserve" overflow="hidden"><g transform="translate(-2764 -1862)"><g><g><g><path d="M60.2084 120.417 228.792 120.417 228.792 132.458 60.2084 132.458Z" fill="#6D62D2" transform="matrix(1.14187 0 0 1 2764 1903)"/><path d="M60.2084 144.5 228.792 144.5 228.792 156.542 60.2084 156.542Z" fill="#6D62D2" transform="matrix(1.14187 0 0 1 2764 1903)"/><path d="M189.656 222.771 189.656 258.896 228.792 258.896 228.792 222.771ZM204.708 234.813 195.677 234.813 195.677 228.792 204.708 228.792Z" fill="#6D62D2" transform="matrix(1.14187 0 0 1 2764 1903)"/><path d="M144.5 222.771 144.5 258.896 183.635 258.896 183.635 222.771ZM159.552 234.813 150.521 234.813 150.521 228.792 159.552 228.792Z" fill="#6D62D2" transform="matrix(1.14187 0 0 1 2764 1903)"/><path d="M189.656 180.625 189.656 216.75 228.792 216.75 228.792 180.625ZM204.708 192.667 195.677 192.667 195.677 186.646 204.708 186.646Z" fill="#6D62D2" transform="matrix(1.14187 0 0 1 2764 1903)"/><path d="M144.5 180.625 144.5 216.75 183.635 216.75 183.635 180.625ZM159.552 192.667 150.521 192.667 150.521 186.646 159.552 186.646Z" fill="#6D62D2" transform="matrix(1.14187 0 0 1 2764 1903)"/><path d="M99.3438 222.771 99.3438 258.896 138.479 258.896 138.479 222.771ZM114.396 234.813 105.365 234.813 105.365 228.792 114.396 228.792Z" fill="#6D62D2" transform="matrix(1.14187 0 0 1 2764 1903)"/><path d="M258.896 258.896 258.896 80.047 144.5 33.1146 30.1042 80.047 30.1042 258.896 48.1667 258.896 48.1667 108.375 240.833 108.375 240.833 258.896 258.896 258.896Z" fill="#6D62D2" transform="matrix(1.14187 0 0 1 2764 1903)"/></g></g></g><g><g><g><path d="M34.485 7.18751C19.409 7.18751 7.18751 19.409 7.18751 34.485 7.18751 49.5609 19.409 61.7824 34.485 61.7824 49.5609 61.7824 61.7824 49.5609 61.7824 34.485 61.7824 34.484 61.7824 34.483 61.7824 34.4821 61.7879 19.4132 49.5768 7.19304 34.508 7.18751 34.5003 7.1875 34.4926 7.1875 34.485 7.18751ZM42.7046 41.2161C42.3395 42.1971 41.7752 43.0918 41.0472 43.8438 40.304 44.5937 39.4086 45.1755 38.4216 45.5501 37.3089 45.9702 36.1269 46.1767 34.9378 46.1589 33.5021 46.2039 32.0794 45.875 30.8093 45.2044 29.7149 44.6001 28.779 43.7455 28.078 42.7103 27.3723 41.6526 26.863 40.4764 26.5744 39.2381 26.2662 37.9644 26.1103 36.6586 26.1101 35.3482 26.1107 34.2358 26.2103 33.1258 26.4076 32.0311 26.6024 30.9309 26.9023 29.852 27.3032 28.809 27.6943 27.7872 28.2025 26.8142 28.8176 25.9095 29.4198 25.0209 30.1475 24.2241 30.9782 23.5441 31.8203 22.8596 32.7725 22.3229 33.7942 21.9571 34.921 21.5618 36.1084 21.3672 37.3025 21.3821 38.8486 21.3248 40.3901 21.5856 41.8313 22.1483L41.8313 25.4438C40.4467 24.7546 38.9217 24.3945 37.3751 24.3915 36.162 24.3524 34.9609 24.6414 33.8985 25.2282 32.9748 25.7651 32.1876 26.5083 31.5985 27.3995 30.991 28.3332 30.5546 29.3675 30.3097 30.4542 30.0405 31.5881 29.9044 32.7495 29.9044 33.915L29.9762 33.915C30.2593 33.4256 30.5952 32.9688 30.9782 32.553 31.3629 32.1366 31.7999 31.7717 32.2784 31.4676 32.7718 31.1533 33.306 30.9084 33.8661 30.7395 34.462 30.5613 35.0812 30.4729 35.7032 30.4772 36.7599 30.4637 37.8092 30.6541 38.7939 31.0378 39.6894 31.3889 40.5053 31.9164 41.1931 32.5889 41.8664 33.2575 42.3945 34.0578 42.7441 34.9399 43.1143 35.8749 43.2998 36.8726 43.2904 37.8782 43.3021 39.0174 43.1035 40.1489 42.7046 41.2161Z" fill="#6D62D2" transform="matrix(1.13043 0 0 1 2984 1893)"/><path d="M38.1592 34.6438C37.7357 34.2564 37.2354 33.9626 36.6908 33.7813 36.1487 33.5995 35.5807 33.5068 35.0089 33.5067 34.397 33.5084 33.7905 33.6217 33.2192 33.841 32.6363 34.0599 32.0983 34.3833 31.6315 34.7955 31.1565 35.2175 30.7675 35.7273 30.4858 36.2969 30.1844 36.9142 30.0329 37.5938 30.0438 38.2807 30.0399 38.9113 30.1487 39.5376 30.3651 40.13 30.5795 40.7082 30.9105 41.2361 31.3375 41.6811 31.7822 42.1448 32.3185 42.5107 32.9123 42.7556 33.5948 43.0295 34.3255 43.1632 35.0607 43.1488 35.7493 43.1647 36.4319 43.0168 37.0523 42.7175 37.5961 42.4479 38.076 42.0653 38.4604 41.5956 38.8365 41.1309 39.124 40.601 39.3085 40.0323 39.4988 39.459 39.5959 38.8588 39.596 38.2548 39.6141 37.5232 39.48 36.7957 39.2021 36.1187 38.9627 35.5588 38.6072 35.0561 38.1592 34.6438Z" fill="#6D62D2" transform="matrix(1.13043 0 0 1 2984 1893)"/></g></g></g><g><g><g><path d="M34.4898 7.18747C19.4135 7.18708 7.1915 19.4085 7.19107 34.4848 7.19064 49.5611 19.4121 61.7831 34.4884 61.7835 49.5647 61.7839 61.7867 49.5625 61.7871 34.4862 61.7871 34.4853 61.7871 34.4843 61.7871 34.4833 61.7926 19.4138 49.5809 7.19301 34.5114 7.18747 34.5042 7.18747 34.497 7.18747 34.4898 7.18747ZM41.7118 42.7885C41.2096 43.6808 40.5117 44.4478 39.6705 45.0317 38.7601 45.6601 37.7467 46.1245 36.6762 46.4038 35.5045 46.7187 34.2958 46.8753 33.0825 46.8695 31.8581 46.8737 30.636 46.7657 29.4313 46.5468 28.4226 46.3843 27.4474 46.058 26.5441 45.5808L26.5441 41.903C27.5032 42.5726 28.5742 43.0657 29.7065 43.3591 30.8456 43.6712 32.0208 43.8316 33.2018 43.8364 33.7707 43.8324 34.338 43.7763 34.8966 43.6689 35.488 43.5626 36.0572 43.3571 36.5799 43.0609 37.0978 42.7653 37.5392 42.3525 37.8686 41.8555 38.2289 41.2771 38.4071 40.6038 38.3804 39.9228 38.4014 39.2265 38.2328 38.5376 37.8924 37.9297 37.5601 37.3756 37.0917 36.9157 36.5318 36.5936 35.8943 36.2307 35.2008 35.9766 34.4797 35.8418 33.6342 35.6773 32.7744 35.5974 31.9131 35.6031L29.695 35.6031 29.695 32.5485 31.7952 32.5485C32.5605 32.5541 33.3244 32.4818 34.0751 32.3328 34.7105 32.2125 35.3176 31.9738 35.8648 31.6292 36.3537 31.3162 36.7559 30.8851 37.0342 30.3757 37.3279 29.8005 37.4716 29.1604 37.4518 28.5149 37.4757 27.9287 37.3399 27.3471 37.0586 26.8323 36.8129 26.4125 36.4672 26.0599 36.0524 25.8059 35.6441 25.5584 35.1955 25.3847 34.727 25.2927 34.2717 25.1993 33.8082 25.1511 33.3434 25.149 32.3418 25.1582 31.3461 25.3034 30.3836 25.5802 29.3807 25.8523 28.4293 26.2875 27.5676 26.8682L27.5676 23.4822C28.4611 23.0087 29.415 22.6593 30.403 22.4436 31.4804 22.2079 32.5805 22.092 33.6834 22.0979 34.6686 22.0961 35.6504 22.2122 36.608 22.4436 37.5006 22.6525 38.3513 23.0117 39.1236 23.5059 39.8399 23.9676 40.4403 24.5881 40.878 25.3193 41.3303 26.1101 41.557 27.0098 41.5335 27.9205 41.5905 29.3521 41.1001 30.7517 40.1622 31.8348 39.1577 32.9036 37.8428 33.6298 36.4031 33.9105 37.1827 33.9911 37.9463 34.1848 38.67 34.4855 39.3814 34.7758 40.039 35.1832 40.6157 35.6908 41.1754 36.1863 41.6332 36.7861 41.9633 37.4568 42.3024 38.1514 42.4747 38.9156 42.4665 39.6885 42.489 40.7699 42.2289 41.8384 41.7118 42.7885Z" fill="#6D62D2" transform="matrix(1.13044 0 0 1 2890 1862)"/></g></g></g><g><g><g><path d="M34.49 7.18751C19.414 7.18751 7.19254 19.409 7.19254 34.485 7.19254 49.5609 19.414 61.7824 34.49 61.7824 49.5659 61.7824 61.7874 49.5609 61.7874 34.485 61.7874 34.484 61.7874 34.483 61.7874 34.4821 61.7926 19.4129 49.5807 7.19269 34.5115 7.18751 34.5044 7.1875 34.4972 7.1875 34.49 7.18751ZM37.4843 46.0719 33.3321 46.0719 33.3321 26.2409C32.9813 26.4804 32.6112 26.7112 32.2216 26.933 31.8323 27.1556 31.43 27.3548 31.017 27.5296 30.5704 27.705 30.1011 27.8681 29.6089 28.0191 29.1168 28.17 28.5759 28.3171 27.986 28.4604L27.986 25.1433C28.3837 25.0317 28.7455 24.9203 29.0713 24.8091 29.3971 24.6979 29.7196 24.5865 30.0388 24.4749 30.3557 24.3477 30.6749 24.2169 30.9933 24.081 31.3117 23.9452 31.6294 23.8151 31.9478 23.6872 32.2496 23.5281 32.5556 23.369 32.8656 23.2099 33.1756 23.0508 33.4823 22.8831 33.7856 22.7068 34.1211 22.5323 34.451 22.3407 34.7753 22.1318 35.0997 21.9228 35.4301 21.7312 35.7665 21.5568L37.4843 21.5568Z" fill="#6D62D2" transform="matrix(1.13043 0 0 1 2800 1893)"/></g></g></g></g></svg>