<svg width="96" height="96" xmlns="http://www.w3.org/2000/svg" xmlns:xlink="http://www.w3.org/1999/xlink" xml:space="preserve" overflow="hidden"><g transform="translate(-527 -279)"><path d="M547 319 603 319 603 323 547 323Z" fill="#6D62D2"/><path d="M547 327 603 327 603 331 547 331Z" fill="#6D62D2"/><path d="M590 353 590 365 603 365 603 353ZM595 357 592 357 592 355 595 355Z" fill="#6D62D2"/><path d="M575 353 575 365 588 365 588 353ZM580 357 577 357 577 355 580 355Z" fill="#6D62D2"/><path d="M590 339 590 351 603 351 603 339ZM595 343 592 343 592 341 595 341Z" fill="#6D62D2"/><path d="M575 339 575 351 588 351 588 339ZM580 343 577 343 577 341 580 341Z" fill="#6D62D2"/><path d="M560 353 560 365 573 365 573 353ZM565 357 562 357 562 355 565 355Z" fill="#6D62D2"/><path d="M613 365 613 305.59 575 290 537 305.59 537 365 543 365 543 315 607 315 607 365 613 365Z" fill="#6D62D2"/></g></svg>