<svg width="330" height="330" xmlns="http://www.w3.org/2000/svg" xmlns:xlink="http://www.w3.org/1999/xlink" xml:space="preserve" overflow="hidden"><g transform="translate(-2764 -1355)"><g><g><g><path d="M34.485 7.18751C19.409 7.18751 7.18751 19.409 7.18751 34.485 7.18751 49.5609 19.409 61.7824 34.485 61.7824 49.5609 61.7824 61.7824 49.5609 61.7824 34.485 61.7824 34.484 61.7824 34.483 61.7824 34.4821 61.7879 19.4132 49.5768 7.19304 34.508 7.18751 34.5003 7.1875 34.4926 7.1875 34.485 7.18751ZM42.7046 41.2161C42.3395 42.1971 41.7752 43.0918 41.0472 43.8438 40.304 44.5937 39.4086 45.1755 38.4216 45.5501 37.3089 45.9702 36.1269 46.1767 34.9378 46.1589 33.5021 46.2039 32.0794 45.875 30.8093 45.2044 29.7149 44.6001 28.779 43.7455 28.078 42.7103 27.3723 41.6526 26.863 40.4764 26.5744 39.2381 26.2662 37.9644 26.1103 36.6586 26.1101 35.3482 26.1107 34.2358 26.2103 33.1258 26.4076 32.0311 26.6024 30.9309 26.9023 29.852 27.3032 28.809 27.6943 27.7872 28.2025 26.8142 28.8176 25.9095 29.4198 25.0209 30.1475 24.2241 30.9782 23.5441 31.8203 22.8596 32.7725 22.3229 33.7942 21.9571 34.921 21.5618 36.1084 21.3672 37.3025 21.3821 38.8486 21.3248 40.3901 21.5856 41.8313 22.1483L41.8313 25.4438C40.4467 24.7546 38.9217 24.3945 37.3751 24.3915 36.162 24.3524 34.9609 24.6414 33.8985 25.2282 32.9748 25.7651 32.1876 26.5083 31.5985 27.3995 30.991 28.3332 30.5546 29.3675 30.3097 30.4542 30.0405 31.5881 29.9044 32.7495 29.9044 33.915L29.9762 33.915C30.2593 33.4256 30.5952 32.9688 30.9782 32.553 31.3629 32.1366 31.7999 31.7717 32.2784 31.4676 32.7718 31.1533 33.306 30.9084 33.8661 30.7395 34.462 30.5613 35.0812 30.4729 35.7032 30.4772 36.7599 30.4637 37.8092 30.6541 38.7939 31.0378 39.6894 31.3889 40.5053 31.9164 41.1931 32.5889 41.8664 33.2575 42.3945 34.0578 42.7441 34.9399 43.1143 35.8749 43.2998 36.8726 43.2904 37.8782 43.3021 39.0174 43.1035 40.1489 42.7046 41.2161Z" fill="#6D62D2" transform="matrix(1.13043 0 0 1 2975 1386)"/><path d="M38.1592 34.6438C37.7357 34.2564 37.2354 33.9626 36.6908 33.7813 36.1487 33.5995 35.5807 33.5068 35.0089 33.5067 34.397 33.5084 33.7905 33.6217 33.2192 33.841 32.6363 34.0599 32.0983 34.3833 31.6315 34.7955 31.1565 35.2175 30.7675 35.7273 30.4858 36.2969 30.1844 36.9142 30.0329 37.5938 30.0438 38.2807 30.0399 38.9113 30.1487 39.5376 30.3651 40.13 30.5795 40.7082 30.9105 41.2361 31.3375 41.6811 31.7822 42.1448 32.3185 42.5107 32.9123 42.7556 33.5948 43.0295 34.3255 43.1632 35.0607 43.1488 35.7493 43.1647 36.4319 43.0168 37.0523 42.7175 37.5961 42.4479 38.076 42.0653 38.4604 41.5956 38.8365 41.1309 39.124 40.601 39.3085 40.0323 39.4988 39.459 39.5959 38.8588 39.596 38.2548 39.6141 37.5232 39.48 36.7957 39.2021 36.1187 38.9627 35.5588 38.6072 35.0561 38.1592 34.6438Z" fill="#6D62D2" transform="matrix(1.13043 0 0 1 2975 1386)"/></g></g></g><g><g><g><path d="M34.49 7.18751C19.4136 7.18711 7.19153 19.4086 7.1911 34.485 7.19067 49.5613 19.4122 61.7834 34.4885 61.7838 49.5649 61.7842 61.787 49.5628 61.7874 34.4864 61.7874 34.4855 61.7874 34.4845 61.7874 34.4835 61.793 19.4139 49.5812 7.19304 34.5115 7.18751 34.5044 7.1875 34.4972 7.1875 34.49 7.18751ZM41.712 42.7887C41.2098 43.681 40.5119 44.448 39.6707 45.0319 38.7603 45.6604 37.7469 46.1247 36.6764 46.404 35.5046 46.719 34.296 46.8756 33.0827 46.8698 31.8583 46.874 30.6361 46.766 29.4314 46.547 28.4228 46.3845 27.4475 46.0582 26.5442 45.581L26.5442 41.9032C27.5034 42.5728 28.5743 43.0659 29.7067 43.3594 30.8458 43.6714 32.021 43.8319 33.202 43.8366 33.7709 43.8326 34.3382 43.7765 34.8968 43.6692 35.4882 43.5629 36.0574 43.3573 36.5801 43.0611 37.098 42.7655 37.5394 42.3528 37.8688 41.8557 38.2291 41.2773 38.4073 40.604 38.3806 39.923 38.4016 39.2267 38.233 38.5378 37.8926 37.9299 37.5603 37.3758 37.0919 36.9159 36.532 36.5938 35.8945 36.2309 35.201 35.9768 34.4799 35.842 33.6344 35.6775 32.7746 35.5976 31.9133 35.6033L29.6952 35.6033 29.6952 32.5486 31.7954 32.5486C32.5607 32.5542 33.3246 32.482 34.0753 32.333 34.7106 32.2127 35.3178 31.974 35.865 31.6294 36.3539 31.3163 36.7561 30.8853 37.0344 30.3759 37.3281 29.8006 37.4718 29.1606 37.452 28.515 37.4759 27.9289 37.34 27.3473 37.0588 26.8324 36.8131 26.4126 36.4674 26.06 36.0526 25.806 35.6443 25.5586 35.1957 25.3848 34.7272 25.2928 34.2718 25.1994 33.8084 25.1513 33.3436 25.1491 32.342 25.1584 31.3463 25.3035 30.3838 25.5803 29.3808 25.8525 28.4295 26.2876 27.5677 26.8684L27.5677 23.4823C28.4612 23.0088 29.4152 22.6594 30.4032 22.4437 31.4806 22.208 32.5807 22.0921 33.6835 22.098 34.6687 22.0962 35.6506 22.2123 36.6081 22.4437 37.5008 22.6526 38.3515 23.0118 39.1238 23.506 39.8402 23.9677 40.4405 24.5882 40.8782 25.3194 41.3305 26.1103 41.5572 27.0099 41.5337 27.9206 41.5907 29.3522 41.1003 30.7518 40.1624 31.8349 39.1579 32.9038 37.843 33.6299 36.4033 33.9107 37.1829 33.9912 37.9465 34.1849 38.6702 34.4857 39.3816 34.776 40.0392 35.1834 40.6159 35.691 41.1757 36.1865 41.6334 36.7863 41.9636 37.457 42.3026 38.1516 42.4749 38.9158 42.4667 39.6887 42.4893 40.7701 42.2291 41.8386 41.712 42.7887Z" fill="#6D62D2" transform="matrix(1.13043 0 0 1 2883 1355)"/></g></g></g><g><g><g><path d="M33.9901 7.08334C19.1327 7.08334 7.0883 19.1277 7.0883 33.9852 7.0883 48.8426 19.1327 60.887 33.9901 60.887 48.8476 60.887 60.8919 48.8426 60.8919 33.9852 60.8919 33.9842 60.8919 33.9832 60.8919 33.9823 60.897 19.1315 48.8622 7.08844 34.0114 7.08334 34.0043 7.08333 33.9972 7.08333 33.9901 7.08334ZM36.941 45.4042 32.849 45.4042 32.849 25.8606C32.5033 26.0967 32.1385 26.324 31.7546 26.5427 31.3709 26.7621 30.9745 26.9583 30.5674 27.1306 30.1274 27.3034 29.6648 27.4642 29.1798 27.613 28.6948 27.7617 28.1617 27.9067 27.5804 28.0479L27.5804 24.7789C27.9723 24.6689 28.3289 24.5591 28.65 24.4496 28.9711 24.34 29.2889 24.2302 29.6034 24.1202 29.9158 23.9948 30.2303 23.8659 30.5441 23.732 30.8579 23.5981 31.1709 23.4699 31.4847 23.3439 31.7822 23.1871 32.0838 23.0303 32.3893 22.8735 32.6948 22.7168 32.997 22.5514 33.2959 22.3777 33.6265 22.2058 33.9517 22.0169 34.2713 21.811 34.591 21.6051 34.9166 21.4163 35.2481 21.2444L36.941 21.2444Z" fill="#6D62D2" transform="matrix(1.14706 0 0 1 2791 1385)"/></g></g></g><g><g><g><path d="M63.4375 97.2407C71.7793 97.2407 78.5417 90.4782 78.5417 82.1365 78.5417 73.7948 71.7793 67.0323 63.4375 67.0323 55.0958 67.0323 48.3334 73.7948 48.3334 82.1365 48.3334 90.4782 55.0958 97.2407 63.4375 97.2407Z" fill="#6D62D2" transform="matrix(1.13793 0 0 1 2764 1395)"/><path d="M83.1334 131.467C84.4353 132.406 85.9989 132.913 87.6042 132.917L108.75 132.917C112.921 132.917 116.302 129.536 116.302 125.365 116.302 121.194 112.921 117.813 108.75 117.813L90.0813 117.813 75.7021 107.27C72.562 102.955 67.3531 100.65 62.0479 101.228 54.2318 102.2 48.4074 108.91 48.5448 116.785L48.5448 160.104C48.5448 168.446 55.3073 175.208 63.649 175.208L78.5417 175.208 78.5417 175.208 96.6667 175.208 96.6667 213.633C96.6667 217.804 100.048 221.186 104.219 221.186 108.39 221.186 111.771 217.804 111.771 213.633L111.771 167.566C111.771 163.395 108.39 160.014 104.219 160.014L78.5417 160.014 78.5417 128.053Z" fill="#6D62D2" transform="matrix(1.13793 0 0 1 2764 1395)"/><path d="M226.563 97.2407C234.904 97.2407 241.667 90.4782 241.667 82.1365 241.667 73.7948 234.904 67.0323 226.563 67.0323 218.221 67.0323 211.458 73.7948 211.458 82.1365 211.458 90.4782 218.221 97.2407 226.563 97.2407Z" fill="#6D62D2" transform="matrix(1.13793 0 0 1 2764 1395)"/><path d="M227.952 101.077C222.647 100.499 217.438 102.804 214.298 107.119L199.919 117.813 181.25 117.813C177.079 117.813 173.698 121.194 173.698 125.365 173.698 129.536 177.079 132.917 181.25 132.917L202.396 132.917C204.001 132.913 205.565 132.406 206.867 131.467L211.458 128.053 211.458 160.104 185.872 160.104C181.701 160.104 178.32 163.485 178.32 167.656L178.32 213.633C178.32 217.804 181.701 221.186 185.872 221.186 190.043 221.186 193.424 217.804 193.424 213.633L193.424 175.208 211.549 175.208 211.549 175.208 226.291 175.208C234.632 175.208 241.395 168.446 241.395 160.104L241.395 116.634C241.536 108.78 235.744 102.077 227.952 101.077Z" fill="#6D62D2" transform="matrix(1.13793 0 0 1 2764 1395)"/><path d="M196.354 138.958 93.6459 138.958C90.3091 138.958 87.6042 141.663 87.6042 145 87.6042 148.337 90.3091 151.042 93.6459 151.042L138.958 151.042 138.958 211.458 120.833 211.458 120.833 223.542 169.167 223.542 169.167 211.458 151.042 211.458 151.042 151.042 196.354 151.042C199.691 151.042 202.396 148.337 202.396 145 202.396 141.663 199.691 138.958 196.354 138.958Z" fill="#6D62D2" transform="matrix(1.13793 0 0 1 2764 1395)"/><path d="M84.5834 181.25 42.2917 181.25 42.2917 120.833C42.2917 117.497 39.5868 114.792 36.25 114.792 32.9132 114.792 30.2083 117.497 30.2083 120.833L30.2083 187.292C30.2083 190.629 32.9132 193.333 36.25 193.333L54.375 193.333 54.375 211.458 42.2917 211.458 42.2917 223.542 78.5417 223.542 78.5417 211.458 66.4584 211.458 66.4584 193.333 84.5834 193.333C87.9202 193.333 90.625 190.629 90.625 187.292 90.625 183.955 87.9202 181.25 84.5834 181.25Z" fill="#6D62D2" transform="matrix(1.13793 0 0 1 2764 1395)"/><path d="M253.75 116.302C250.413 116.302 247.708 119.007 247.708 122.344L247.708 181.25 205.417 181.25C202.08 181.25 199.375 183.955 199.375 187.292 199.375 190.629 202.08 193.333 205.417 193.333L223.542 193.333 223.542 211.458 211.458 211.458 211.458 223.542 247.708 223.542 247.708 211.458 235.625 211.458 235.625 193.333 253.75 193.333C257.087 193.333 259.792 190.629 259.792 187.292L259.792 122.344C259.792 119.007 257.087 116.302 253.75 116.302Z" fill="#6D62D2" transform="matrix(1.13793 0 0 1 2764 1395)"/></g></g></g></g></svg>