<svg width="96" height="96" xmlns="http://www.w3.org/2000/svg" xmlns:xlink="http://www.w3.org/1999/xlink" xml:space="preserve" overflow="hidden"><g transform="translate(-522 -164)"><path d="M543 196.19C545.761 196.19 548 193.951 548 191.19 548 188.429 545.761 186.19 543 186.19 540.239 186.19 538 188.429 538 191.19 538 193.951 540.239 196.19 543 196.19Z" fill="#6D62D2"/><path d="M549.52 207.52C549.951 207.831 550.469 207.999 551 208L558 208C559.381 208 560.5 206.881 560.5 205.5 560.5 204.119 559.381 203 558 203L551.82 203 547.06 199.51C546.021 198.082 544.296 197.319 542.54 197.51 539.953 197.832 538.024 200.053 538.07 202.66L538.07 217C538.07 219.761 540.309 222 543.07 222L548 222 548 222 554 222 554 234.72C554 236.101 555.119 237.22 556.5 237.22 557.881 237.22 559 236.101 559 234.72L559 219.47C559 218.089 557.881 216.97 556.5 216.97L548 216.97 548 206.39Z" fill="#6D62D2"/><path d="M597 196.19C599.761 196.19 602 193.951 602 191.19 602 188.429 599.761 186.19 597 186.19 594.239 186.19 592 188.429 592 191.19 592 193.951 594.239 196.19 597 196.19Z" fill="#6D62D2"/><path d="M597.46 197.46C595.704 197.269 593.979 198.032 592.94 199.46L588.18 203 582 203C580.619 203 579.5 204.119 579.5 205.5 579.5 206.881 580.619 208 582 208L589 208C589.531 207.999 590.049 207.831 590.48 207.52L592 206.39 592 217 583.53 217C582.149 217 581.03 218.119 581.03 219.5L581.03 234.72C581.03 236.101 582.149 237.22 583.53 237.22 584.911 237.22 586.03 236.101 586.03 234.72L586.03 222 592.03 222 592.03 222 596.91 222C599.671 222 601.91 219.761 601.91 217L601.91 202.61C601.957 200.01 600.039 197.791 597.46 197.46Z" fill="#6D62D2"/><path d="M587 210 553 210C551.895 210 551 210.895 551 212 551 213.105 551.895 214 553 214L568 214 568 234 562 234 562 238 578 238 578 234 572 234 572 214 587 214C588.105 214 589 213.105 589 212 589 210.895 588.105 210 587 210Z" fill="#6D62D2"/><path d="M550 224 536 224 536 204C536 202.895 535.105 202 534 202 532.895 202 532 202.895 532 204L532 226C532 227.105 532.895 228 534 228L540 228 540 234 536 234 536 238 548 238 548 234 544 234 544 228 550 228C551.105 228 552 227.105 552 226 552 224.895 551.105 224 550 224Z" fill="#6D62D2"/><path d="M606 202.5C604.895 202.5 604 203.395 604 204.5L604 224 590 224C588.895 224 588 224.895 588 226 588 227.105 588.895 228 590 228L596 228 596 234 592 234 592 238 604 238 604 234 600 234 600 228 606 228C607.105 228 608 227.105 608 226L608 204.5C608 203.395 607.105 202.5 606 202.5Z" fill="#6D62D2"/></g></svg>