<svg width="96" height="96" xmlns="http://www.w3.org/2000/svg" xmlns:xlink="http://www.w3.org/1999/xlink" xml:space="preserve" overflow="hidden"><g transform="translate(-527 -386)"><path d="M595 416.2C592.6 416.2 590.6 414.2 590.7 411.7 590.7 409.3 592.7 407.3 595.1 407.3 597.5 407.3 599.5 409.3 599.5 411.7 599.5 412.9 599 414 598.2 414.8 597.3 415.7 596.2 416.2 595 416.2ZM590.7 402.3C588.5 403.1 586.8 404.8 585.7 406.8 584.3 409.5 584.1 412.6 585.2 415.4L590 425.8 593.2 432.4C593.5 433.1 594.2 433.5 595 433.5 595.8 433.5 596.5 433.1 596.8 432.4L600 425.8 604.8 415.5C605.3 414.3 605.5 413 605.5 411.7 605.5 404.7 598.3 399.4 590.7 402.3Z" fill="#6D62D2"/><path d="M573 458.8 557 450.8 557 418.2 573 426.2 573 458.8ZM553 450.8 541 456.8 541 424.2 553 418.2 553 450.8ZM608.4 417.2 608.4 417.2 605.9 422.6 609 424.2 609 456.8 597 450.8 597 437.5 593 437.5 593 450.8 577 458.8 577 426.2 584.1 422.6 581.6 417.2 575 420.5 555 410.5 535 420.5 535 466.5 555 456.5 575 466.5 595 456.5 615 466.5 615 420.5 608.4 417.2Z" fill="#6D62D2"/></g></svg>