<svg width="96" height="96" xmlns="http://www.w3.org/2000/svg" xmlns:xlink="http://www.w3.org/1999/xlink" xml:space="preserve" overflow="hidden"><g transform="translate(-745 -195)"><path d="M759 235 773 235 773 249 759 249Z" fill="#6D62D2"/><path d="M813 235 827 235 827 249 813 249Z" fill="#6D62D2"/><path d="M759 208 773 208 773 222 759 222Z" fill="#6D62D2"/><path d="M759 262 773 262 773 276 759 276Z" fill="#6D62D2"/><path d="M795 213 777 213 777 217 791 217 791 240 777 240 777 244 791 244 791 267 777 267 777 271 795 271 795 244 809 244 809 240 795 240 795 213Z" fill="#6D62D2"/></g></svg>