<svg width="96" height="96" xmlns="http://www.w3.org/2000/svg" xmlns:xlink="http://www.w3.org/1999/xlink" xml:space="preserve" overflow="hidden"><g transform="translate(-6 -561)"><path d="M54 571C33 571 16 588 16 609 16 630 33 647 54 647 75 647 92 630 92 609 92 588 75 571 54 571ZM52 581C54.8 581 57 583.2 57 586 57 588.8 54.8 591 52 591 49.2 591 47 588.8 47 586 47 583.2 49.2 581 52 581ZM64 637 44 637 44 631 51 631 51 601 45 601 45 595 57 595 57 601 57 631 64 631 64 637Z" fill="#6D62D2"/></g></svg>