<svg width="330" height="330" xmlns="http://www.w3.org/2000/svg" xmlns:xlink="http://www.w3.org/1999/xlink" xml:space="preserve" overflow="hidden"><g transform="translate(-3131 -1505)"><path d="M3288.98 1605.97 3288.98 1619.72C3291.38 1619.72 3293.44 1619.38 3295.84 1619.38 3298.24 1619.38 3300.3 1619.38 3302.7 1619.72L3302.7 1605.97C3316.07 1606.66 3328.75 1609.41 3340.41 1613.88L3335.26 1626.25C3339.72 1627.97 3343.83 1629.69 3347.95 1631.75L3353.09 1619.03C3359.6 1622.12 3365.43 1625.91 3371.26 1630.03L3386 1615.25C3360.97 1596.34 3329.78 1585 3295.84 1585 3212.54 1585 3145 1652.72 3145 1736.25L3145 1750 3165.57 1750 3165.57 1736.25C3165.57 1722.16 3167.97 1708.41 3172.08 1695.69L3184.77 1700.84C3186.14 1696.38 3187.85 1692.25 3189.57 1688.12L3176.88 1682.97C3182.02 1671.28 3189.22 1660.28 3197.45 1651L3207.05 1660.62C3210.14 1657.19 3213.22 1653.75 3216.65 1650.66L3207.05 1641.03C3216.31 1632.44 3226.93 1624.88 3238.59 1619.03L3243.73 1631.75C3247.84 1629.69 3251.96 1627.97 3256.42 1626.25L3251.27 1613.53C3262.93 1609.06 3275.61 1606.66 3288.98 1605.97Z" fill="#6D62D2" fill-rule="evenodd"/><path d="M3420.26 1650 3405.71 1664.73C3409.43 1670.55 3412.82 1676.71 3415.52 1682.88L3403 1688.36C3404.69 1692.47 3406.38 1696.92 3407.74 1701.03L3420.26 1695.89C3424.32 1708.56 3426.69 1722.26 3426.69 1736.3L3426.69 1750 3447 1750 3447 1736.3C3447 1704.11 3437.18 1674.66 3420.26 1650Z" fill="#6D62D2" fill-rule="evenodd"/><path d="M3286.89 1730.45C3286.21 1730.8 3285.86 1731.49 3285.18 1732.18 3280.38 1738.03 3281.07 1746.64 3286.89 1751.81 3292.72 1756.63 3301.28 1755.94 3306.42 1750.08L3413 1623 3286.89 1730.45Z" fill="#6D62D2" fill-rule="evenodd"/><path d="M3287.08 1750.64C3287.32 1751.11 3287.79 1751.35 3288.26 1751.82 3292.3 1755.11 3298.24 1754.64 3301.8 1750.64 3305.12 1746.64 3304.65 1740.75 3300.61 1737.22L3213 1664 3287.08 1750.64Z" fill="#6D62D2" fill-rule="evenodd"/></g></svg>