<svg width="96" height="96" xmlns="http://www.w3.org/2000/svg" xmlns:xlink="http://www.w3.org/1999/xlink" xml:space="preserve" overflow="hidden"><g transform="translate(-19 -482)"><path d="M65 512.1 65 516.1C65.7 516.1 66.3 516 67 516 67.7 516 68.3 516 69 516.1L69 512.1C72.9 512.3 76.6 513.1 80 514.4L78.5 518C79.8 518.5 81 519 82.2 519.6L83.7 515.9C85.6 516.8 87.3 517.9 89 519.1L93.3 514.8C86 509.3 76.9 506 67 506 42.7 506 23 525.7 23 550L23 554 29 554 29 550C29 545.9 29.7 541.9 30.9 538.2L34.6 539.7C35 538.4 35.5 537.2 36 536L32.3 534.5C33.8 531.1 35.9 527.9 38.3 525.2L41.1 528C42 527 42.9 526 43.9 525.1L41.1 522.3C43.8 519.8 46.9 517.6 50.3 515.9L51.8 519.6C53 519 54.2 518.5 55.5 518L54 514.3C57.4 513 61.1 512.3 65 512.1Z" fill="#6D62D2"/><path d="M103.1 524.8 98.8 529.1C99.9 530.8 100.9 532.6 101.7 534.4L98 536C98.5 537.2 99 538.5 99.4 539.7L103.1 538.2C104.3 541.9 105 545.9 105 550L105 554 111 554 111 550C111 540.6 108.1 532 103.1 524.8Z" fill="#6D62D2"/><path d="M64.2 548.2C64 548.3 63.9 548.5 63.7 548.7 62.3 550.4 62.5 552.9 64.2 554.4 65.9 555.8 68.4 555.6 69.9 553.9L101 517 64.2 548.2Z" fill="#6D62D2"/></g></svg>