<svg width="330" height="331" xmlns="http://www.w3.org/2000/svg" xmlns:xlink="http://www.w3.org/1999/xlink" xml:space="preserve" overflow="hidden"><g transform="translate(-1277 -1609)"><path d="M1323.11 1856.79C1314.19 1856.79 1306.76 1849.85 1306.76 1841.52 1306.76 1833.2 1314.19 1826.26 1323.11 1826.26 1332.02 1826.26 1339.45 1833.2 1339.45 1841.52 1339.45 1841.52 1339.45 1841.52 1339.45 1841.52 1339.45 1849.85 1332.02 1856.79 1323.11 1856.79 1323.11 1856.79 1323.11 1856.79 1323.11 1856.79L1323.11 1856.79ZM1323.11 1806C1310.63 1806 1298.74 1811.83 1291.61 1821.54 1284.48 1831.25 1283 1843.74 1287.75 1854.57L1304.98 1890.09 1319.84 1919.23C1320.73 1920.9 1323.11 1921.45 1324.89 1920.62 1325.48 1920.34 1326.08 1919.78 1326.37 1919.23L1341.23 1890.09 1358.46 1854.57C1362.92 1843.74 1361.43 1831.25 1354.6 1821.54 1347.47 1811.83 1335.58 1806 1323.11 1806L1323.11 1806Z" fill="#6D62D2" fill-rule="evenodd"/><path d="M1365 1920 1357.2 1920C1353.6 1920 1350.3 1920 1347 1920L1347 1899C1350 1899 1353.6 1899 1357.2 1899L1365 1899 1365 1920Z" fill="#6D62D2" fill-rule="evenodd"/><path d="M1377 1920 1377 1898.36C1383.49 1898.36 1389.1 1898.36 1394.41 1898L1395 1919.64C1389.39 1920 1383.49 1920 1377 1920Z" fill="#6D62D2" fill-rule="evenodd"/><path d="M1405.89 1919 1405 1897.44C1411.23 1897.08 1417.17 1896.72 1422.22 1896L1424 1917.56C1418.66 1918.28 1412.42 1918.64 1405.89 1919L1405.89 1919Z" fill="#6D62D2" fill-rule="evenodd"/><path d="M1436.66 1916 1434 1894.93C1439.62 1893.86 1444.94 1892.79 1450.27 1891L1455 1911.71C1448.79 1913.5 1442.87 1914.93 1436.66 1916Z" fill="#6D62D2" fill-rule="evenodd"/><path d="M1467.06 1906 1460 1886.51C1463.82 1885.09 1467.06 1881.9 1469.41 1878L1485 1888.28C1480.59 1896.43 1474.41 1902.46 1467.06 1906L1467.06 1906Z" fill="#6D62D2" fill-rule="evenodd"/><path d="M1469.92 1871C1469.34 1866.27 1467.61 1861.55 1465 1858.27L1477.16 1843C1482.66 1849.91 1486.13 1858.64 1487 1868.45L1469.92 1871Z" fill="#6D62D2" fill-rule="evenodd"/><path d="M1457.74 1852C1453.03 1849.09 1448.01 1846.55 1443 1844.73L1448.01 1824C1454.21 1826.18 1460.4 1829.09 1466 1832.73L1457.74 1852Z" fill="#6D62D2" fill-rule="evenodd"/><path d="M1431.78 1841 1426.96 1839.58C1422.74 1838.15 1418.22 1837.08 1414 1835.66L1418.82 1815C1422.74 1816.42 1426.96 1817.49 1431.18 1818.92L1436 1820.34 1431.78 1841Z" fill="#6D62D2" fill-rule="evenodd"/><path d="M1402.45 1831C1395.31 1827.77 1388.76 1822.39 1384 1815.21L1398.58 1803C1401.26 1806.95 1405.13 1809.82 1409 1811.26L1402.45 1831Z" fill="#6D62D2" fill-rule="evenodd"/><path d="M1397.69 1796 1380 1794.58C1380.59 1784.28 1385.31 1775.04 1392.09 1769L1403 1785.7C1397.69 1791.03 1397.69 1794.93 1397.69 1796L1397.69 1796Z" fill="#6D62D2" fill-rule="evenodd"/><path d="M1410.95 1780 1404 1760.46C1409.79 1757.26 1415.87 1754.78 1421.95 1753L1426 1773.61C1420.79 1775.38 1415.87 1777.51 1410.95 1780L1410.95 1780Z" fill="#6D62D2" fill-rule="evenodd"/><path d="M1436.99 1771 1434 1749.87C1441.76 1748.43 1448.33 1747.36 1452.51 1747L1454 1768.49C1451.02 1768.85 1444.45 1769.57 1436.99 1771L1436.99 1771Z" fill="#6D62D2" fill-rule="evenodd"/><g><g><g><path d="M41.6835 78.3234C40.946 79.8493 40.3144 81.4242 39.793 83.0367 39.2448 84.7596 38.8363 86.5241 38.5713 88.3126L44.9396 88.3126C45.2378 86.3692 45.6578 84.4466 46.1973 82.5559 46.6997 80.8163 47.3094 79.1096 48.0224 77.4452 48.9546 75.3533 49.9918 73.3097 51.1297 71.3222L51.1297 67.7063 36.0511 67.7063 36.0511 72.4784 45.0214 72.4784C43.8086 74.3678 42.6944 76.3187 41.6835 78.3234Z" fill="#6D62D2" transform="matrix(1 0 0 1.07643 1450 1609)"/><path d="M71.121 78.3234C70.3835 79.8493 69.7519 81.4242 69.2305 83.0367 68.6823 84.7596 68.2738 86.5241 68.0088 88.3126L74.3772 88.3126C74.6753 86.3692 75.0954 84.4466 75.6348 82.5559 76.1372 80.8163 76.7469 79.1096 77.4599 77.4452 78.3921 75.3533 79.4293 73.3097 80.5672 71.3222L80.5672 67.7063 65.4887 67.7063 65.4887 72.4784 74.4589 72.4784C73.2461 74.3678 72.1319 76.3187 71.121 78.3234Z" fill="#6D62D2" transform="matrix(1 0 0 1.07643 1450 1609)"/><path d="M100.559 78.3234C99.821 79.8493 99.1894 81.4242 98.668 83.0367 98.1198 84.7596 97.7113 86.5241 97.4464 88.3126L103.815 88.3126C104.113 86.3692 104.533 84.4466 105.072 82.5559 105.575 80.8163 106.184 79.1096 106.897 77.4452 107.83 75.3533 108.867 73.3097 110.005 71.3222L110.005 67.7063 94.9262 67.7063 94.9262 72.4784 103.896 72.4784C102.684 74.3678 101.569 76.3187 100.559 78.3234Z" fill="#6D62D2" transform="matrix(1 0 0 1.07643 1450 1609)"/><path d="M138.32 47.4271C133.804 47.4366 130.151 51.1052 130.16 55.6212 130.167 58.8597 132.084 61.789 135.05 63.0911L135.05 89.948 131.779 89.948 131.779 83.4063C131.779 82.5031 131.047 81.7709 130.143 81.7709L125.237 81.7709 125.237 45.7917C125.237 42.1789 122.308 39.25 118.695 39.25L112.317 39.25C107.753 32.3142 98.5045 26.8601 86.9797 24.3677L85.009 17.1294C84.6209 15.7059 83.328 14.7185 81.8527 14.7188L63.9546 14.7188C62.4793 14.7185 61.1864 15.7059 60.7983 17.1294L58.8227 24.3677C47.2996 26.8568 38.0529 32.3109 33.4852 39.25L27.107 39.25C23.4942 39.25 20.5654 42.1789 20.5654 45.7917L20.5654 114.479 15.283 126.377C14.489 128.163 14.5352 130.21 15.4089 131.959L18.7631 138.664C19.8707 140.88 22.1354 142.281 24.613 142.281L121.194 142.281C123.672 142.282 125.937 140.882 127.046 138.665L130.398 131.96C131.272 130.212 131.318 128.164 130.524 126.379L125.237 114.479 125.237 104.667 130.143 104.667C131.047 104.667 131.779 103.935 131.779 103.031L131.779 96.4896 135.05 96.4896C138.662 96.4896 141.591 93.5608 141.591 89.948L141.591 63.0911C145.726 61.2753 147.606 56.4512 145.79 52.3164 144.488 49.3512 141.559 47.4338 138.32 47.4271ZM90.8932 53.9688 113.789 53.9688 113.789 101.396 90.8932 101.396ZM61.4557 53.9688 84.3516 53.9688 84.3516 101.396 61.4557 101.396ZM32.0182 53.9688 54.9141 53.9688 54.9141 101.396 32.0182 101.396ZM114.479 121.021 32.7084 121.021 32.7084 114.479 114.479 114.479Z" fill="#6D62D2" transform="matrix(1 0 0 1.07643 1450 1609)"/></g></g></g></g></svg>