<svg width="330" height="330" xmlns="http://www.w3.org/2000/svg" xmlns:xlink="http://www.w3.org/1999/xlink" xml:space="preserve" overflow="hidden"><g transform="translate(-3730 -337)"><g><g><g><path d="M58.4743 12.1875C32.9108 12.1875 12.1875 32.9108 12.1875 58.4743 12.1875 84.0378 32.9108 104.761 58.4743 104.761 84.0378 104.761 104.761 84.0378 104.761 58.4743 104.761 58.4731 104.761 58.4719 104.761 58.4707 104.77 32.9179 84.0625 12.1963 58.5097 12.1875 58.4979 12.1875 58.4862 12.1875 58.4743 12.1875ZM69.6868 60.6852C62.9431 67.4167 56.1587 74.208 49.3337 81.059 43.5341 75.2318 37.7206 69.4183 31.8934 63.6187L37.7203 57.7918 49.3337 69.4053C54.9717 63.6861 60.5779 58.0072 66.1525 52.3684 71.7234 46.7305 74.8056 43.7043 80.5837 38.12 80.7458 37.9579 80.92 37.7971 81.1089 37.6325 81.292 37.4773 81.4557 37.3005 81.5964 37.106L87.5049 42.9329C80.6422 49.7579 76.4302 53.9503 69.6856 60.6815Z" fill="#6D62D2" transform="matrix(1 0 0 1 3912 445)"/></g></g></g><rect x="3762" y="478" width="48.0002" height="47.9998" fill="#6D62D2"/><rect x="3762" y="386" width="48.0002" height="48.0001" fill="#6D62D2"/><rect x="3762" y="571" width="48.0002" height="48.0001" fill="#6D62D2"/><path d="M3885.87 403 3824 403 3824 416.724 3872.12 416.724 3872.12 495.638 3824 495.638 3824 509.362 3872.12 509.362 3872.12 588.276 3824 588.276 3824 602 3885.87 602 3885.87 509.362 3934 509.362 3934 495.638 3885.87 495.638 3885.87 403Z" fill="#6D62D2" fill-rule="evenodd"/></g></svg>