<svg width="96" height="96" xmlns="http://www.w3.org/2000/svg" xmlns:xlink="http://www.w3.org/1999/xlink" xml:space="preserve" overflow="hidden"><g transform="translate(-855 -136)"><path d="M923 166.2C920.6 166.2 918.6 164.2 918.7 161.7 918.7 159.3 920.7 157.3 923.1 157.3 925.5 157.3 927.5 159.3 927.5 161.7 927.5 162.9 927 164 926.2 164.8 925.3 165.7 924.2 166.2 923 166.2ZM918.7 152.3C916.5 153.1 914.8 154.8 913.7 156.8 912.3 159.5 912.1 162.6 913.2 165.4L918 175.8 921.2 182.4C921.5 183.1 922.2 183.5 923 183.5 923.8 183.5 924.5 183.1 924.8 182.4L928 175.8 932.8 165.5C933.3 164.3 933.5 163 933.5 161.7 933.5 154.7 926.3 149.4 918.7 152.3Z" fill="#6D62D2"/><path d="M901 208.8 885 200.8 885 168.2 901 176.2 901 208.8ZM881 200.8 869 206.8 869 174.2 881 168.2 881 200.8ZM936.4 167.2 936.4 167.2 933.9 172.6 937 174.2 937 206.8 925 200.8 925 187.5 921 187.5 921 200.8 905 208.8 905 176.2 912.1 172.6 909.6 167.2 903 170.5 883 160.5 863 170.5 863 216.5 883 206.5 903 216.5 923 206.5 943 216.5 943 170.5 936.4 167.2Z" fill="#6D62D2"/></g></svg>