<svg width="330" height="330" xmlns="http://www.w3.org/2000/svg" xmlns:xlink="http://www.w3.org/1999/xlink" xml:space="preserve" overflow="hidden"><g transform="translate(-1482 -1493)"><path d="M1578.25 1554.87 1531.71 1554.87C1531.71 1554.87 1533.25 1576.6 1548.89 1582.79 1554.05 1584.85 1555.08 1591 1555.22 1594.89 1555.22 1595.51 1555.22 1598.32 1555.22 1598.32 1556.21 1607.77 1564.67 1614.61 1574.11 1613.62 1575.52 1613.47 1576.91 1613.15 1578.25 1612.66Z" fill="#6D62D2"/><path d="M1578.25 1623.62 1531.71 1623.62C1531.71 1623.62 1533.25 1645.35 1548.89 1651.54 1554.05 1653.6 1555.08 1659.75 1555.22 1663.64 1555.22 1664.26 1555.22 1667.07 1555.22 1667.07 1556.21 1676.52 1564.67 1683.36 1574.11 1682.37 1575.52 1682.22 1576.91 1681.9 1578.25 1681.41Z" fill="#6D62D2"/><path d="M1578.25 1695.81 1531.71 1695.81C1531.71 1695.81 1533.25 1717.54 1548.89 1723.72 1554.05 1725.79 1555.08 1731.94 1555.22 1735.82 1555.22 1736.44 1555.22 1739.26 1555.22 1739.26 1556.21 1748.7 1564.67 1755.55 1574.11 1754.56 1575.52 1754.41 1576.91 1754.09 1578.25 1753.6Z" fill="#6D62D2"/><path d="M1715.75 1554.87 1762.29 1554.87C1762.29 1554.87 1760.75 1576.6 1745.11 1582.79 1739.95 1584.85 1738.92 1591 1738.78 1594.89 1738.78 1595.51 1738.78 1598.32 1738.78 1598.32 1737.79 1607.77 1729.33 1614.61 1719.89 1613.62 1718.48 1613.47 1717.09 1613.15 1715.75 1612.66Z" fill="#6D62D2"/><path d="M1715.75 1623.62 1762.29 1623.62C1762.29 1623.62 1760.75 1645.35 1745.11 1651.54 1739.95 1653.6 1738.92 1659.75 1738.78 1663.64 1738.78 1664.26 1738.78 1667.07 1738.78 1667.07 1737.79 1676.52 1729.33 1683.36 1719.89 1682.37 1718.48 1682.22 1717.09 1681.9 1715.75 1681.41Z" fill="#6D62D2"/><path d="M1715.75 1695.81 1762.29 1695.81C1762.29 1695.81 1760.75 1717.54 1745.11 1723.72 1739.95 1725.79 1738.92 1731.94 1738.78 1735.82 1738.78 1736.44 1738.78 1739.26 1738.78 1739.26 1737.79 1748.7 1729.33 1755.55 1719.89 1754.56 1718.48 1754.41 1717.09 1754.09 1715.75 1753.6Z" fill="#6D62D2"/><path d="M1691.69 1534.25 1602.31 1534.25C1594.72 1534.25 1588.56 1540.41 1588.56 1548L1588.56 1768C1588.56 1775.59 1594.72 1781.75 1602.31 1781.75L1691.69 1781.75C1699.28 1781.75 1705.44 1775.59 1705.44 1768L1705.44 1548C1705.44 1540.41 1699.28 1534.25 1691.69 1534.25ZM1647 1764.56C1629.91 1764.56 1616.06 1750.71 1616.06 1733.62 1616.06 1716.54 1629.91 1702.69 1647 1702.69 1664.09 1702.69 1677.94 1716.54 1677.94 1733.62 1677.94 1750.71 1664.09 1764.56 1647 1764.56ZM1647 1688.94C1629.91 1688.94 1616.06 1675.09 1616.06 1658 1616.06 1640.91 1629.91 1627.06 1647 1627.06 1664.09 1627.06 1677.94 1640.91 1677.94 1658 1677.94 1675.09 1664.09 1688.94 1647 1688.94ZM1647 1613.31C1629.91 1613.31 1616.06 1599.46 1616.06 1582.37 1616.06 1565.29 1629.91 1551.44 1647 1551.44 1664.09 1551.44 1677.94 1565.29 1677.94 1582.37 1677.94 1599.46 1664.09 1613.31 1647 1613.31Z" fill="#6D62D2"/><g><g><g><path d="M1647.49 1625.48C1627.6 1625.48 1611.48 1641.6 1611.48 1661.48 1611.48 1681.36 1627.6 1697.48 1647.48 1697.48 1667.37 1697.48 1683.49 1681.37 1683.49 1661.48 1683.49 1661.48 1683.49 1661.48 1683.49 1661.48 1683.49 1641.6 1667.39 1625.49 1647.52 1625.48 1647.51 1625.48 1647.5 1625.48 1647.49 1625.48ZM1657.01 1672.43C1656.35 1673.61 1655.43 1674.62 1654.32 1675.39 1653.12 1676.22 1651.78 1676.83 1650.37 1677.2 1648.82 1677.61 1647.23 1677.82 1645.63 1677.81 1644.02 1677.82 1642.4 1677.68 1640.82 1677.39 1639.48 1677.17 1638.2 1676.74 1637.01 1676.11L1637.01 1671.26C1638.27 1672.15 1639.68 1672.8 1641.18 1673.18 1642.68 1673.6 1644.23 1673.81 1645.79 1673.81 1646.54 1673.81 1647.29 1673.73 1648.02 1673.59 1648.8 1673.45 1649.55 1673.18 1650.24 1672.79 1650.93 1672.4 1651.51 1671.86 1651.94 1671.2 1652.42 1670.44 1652.65 1669.55 1652.62 1668.65 1652.65 1667.73 1652.42 1666.83 1651.97 1666.02 1651.54 1665.29 1650.92 1664.69 1650.18 1664.26 1649.34 1663.78 1648.42 1663.45 1647.47 1663.27 1646.36 1663.05 1645.22 1662.95 1644.09 1662.96L1641.16 1662.96 1641.16 1658.93 1643.93 1658.93C1644.94 1658.93 1645.95 1658.84 1646.94 1658.64 1647.78 1658.48 1648.58 1658.17 1649.3 1657.71 1649.94 1657.3 1650.48 1656.73 1650.84 1656.06 1651.23 1655.3 1651.42 1654.46 1651.39 1653.61 1651.42 1652.83 1651.25 1652.07 1650.87 1651.39 1650.55 1650.83 1650.09 1650.37 1649.55 1650.03 1649.01 1649.71 1648.42 1649.48 1647.8 1649.36 1647.2 1649.23 1646.59 1649.17 1645.97 1649.17 1644.65 1649.18 1643.34 1649.37 1642.07 1649.74 1640.75 1650.1 1639.49 1650.67 1638.36 1651.44L1638.36 1646.97C1639.54 1646.34 1640.79 1645.88 1642.1 1645.6 1643.52 1645.29 1644.97 1645.14 1646.42 1645.14 1647.72 1645.14 1649.02 1645.29 1650.28 1645.6 1651.46 1645.88 1652.58 1646.35 1653.6 1647 1654.54 1647.61 1655.33 1648.43 1655.91 1649.39 1656.51 1650.44 1656.81 1651.62 1656.78 1652.82 1656.85 1654.71 1656.2 1656.56 1654.97 1657.99 1653.64 1659.39 1651.91 1660.35 1650.01 1660.72 1651.04 1660.83 1652.05 1661.08 1653 1661.48 1653.94 1661.86 1654.81 1662.4 1655.57 1663.07 1656.3 1663.72 1656.91 1664.52 1657.34 1665.4 1657.79 1666.32 1658.02 1667.32 1658.01 1668.34 1658.04 1669.77 1657.69 1671.18 1657.01 1672.43Z" fill="#6D62D2"/></g></g></g><g><g><g><path d="M1648.48 1700.48C1628.6 1700.48 1612.48 1716.6 1612.48 1736.48 1612.48 1756.36 1628.6 1772.48 1648.48 1772.48 1668.36 1772.48 1684.48 1756.36 1684.48 1736.48 1684.48 1736.48 1684.48 1736.48 1684.48 1736.48 1684.49 1716.6 1668.38 1700.49 1648.51 1700.48 1648.5 1700.48 1648.49 1700.48 1648.48 1700.48ZM1659.32 1745.36C1658.84 1746.65 1658.09 1747.83 1657.13 1748.82 1656.15 1749.81 1654.97 1750.58 1653.67 1751.07 1652.2 1751.63 1650.65 1751.9 1649.08 1751.88 1647.18 1751.94 1645.31 1751.5 1643.63 1750.62 1642.19 1749.82 1640.95 1748.69 1640.03 1747.33 1639.1 1745.93 1638.43 1744.38 1638.05 1742.75 1637.64 1741.07 1637.44 1739.35 1637.43 1737.62 1637.44 1736.15 1637.57 1734.69 1637.83 1733.24 1638.08 1731.79 1638.48 1730.37 1639.01 1728.99 1639.52 1727.65 1640.19 1726.36 1641.01 1725.17 1641.8 1724 1642.76 1722.95 1643.86 1722.05 1644.97 1721.15 1646.22 1720.44 1647.57 1719.96 1649.06 1719.44 1650.62 1719.18 1652.2 1719.2 1654.23 1719.12 1656.27 1719.47 1658.17 1720.21L1658.17 1724.56C1656.34 1723.65 1654.33 1723.17 1652.29 1723.17 1650.69 1723.12 1649.11 1723.5 1647.71 1724.27 1646.49 1724.98 1645.45 1725.96 1644.67 1727.14 1643.87 1728.37 1643.3 1729.73 1642.97 1731.16 1642.62 1732.66 1642.44 1734.19 1642.44 1735.73L1642.53 1735.73C1642.91 1735.08 1643.35 1734.48 1643.86 1733.93 1644.36 1733.38 1644.94 1732.9 1645.57 1732.5 1646.22 1732.09 1646.93 1731.76 1647.66 1731.54 1648.45 1731.31 1649.27 1731.19 1650.09 1731.19 1651.48 1731.18 1652.86 1731.43 1654.16 1731.93 1655.34 1732.4 1656.42 1733.09 1657.33 1733.98 1658.21 1734.86 1658.91 1735.92 1659.37 1737.08 1659.86 1738.31 1660.11 1739.63 1660.09 1740.96 1660.11 1742.46 1659.85 1743.95 1659.32 1745.36Z" fill="#6D62D2"/><path d="M1653.33 1736.69C1652.77 1736.18 1652.11 1735.79 1651.39 1735.55 1650.67 1735.31 1649.93 1735.19 1649.17 1735.19 1648.36 1735.19 1647.56 1735.34 1646.81 1735.63 1646.04 1735.92 1645.33 1736.35 1644.72 1736.89 1644.09 1737.45 1643.58 1738.12 1643.21 1738.87 1642.81 1739.68 1642.61 1740.58 1642.62 1741.49 1642.62 1742.32 1642.76 1743.14 1643.05 1743.92 1643.33 1744.69 1643.77 1745.38 1644.33 1745.97 1644.92 1746.58 1645.62 1747.06 1646.41 1747.39 1647.31 1747.75 1648.27 1747.93 1649.24 1747.91 1650.15 1747.93 1651.05 1747.73 1651.87 1747.34 1652.58 1746.98 1653.22 1746.48 1653.72 1745.86 1654.22 1745.24 1654.6 1744.55 1654.84 1743.8 1655.09 1743.04 1655.22 1742.25 1655.22 1741.45 1655.24 1740.49 1655.07 1739.53 1654.7 1738.63 1654.39 1737.9 1653.92 1737.23 1653.33 1736.69Z" fill="#6D62D2"/></g></g></g><g><g><g><path d="M1646.49 1549.48C1626.6 1549.48 1610.49 1565.6 1610.49 1585.48 1610.49 1605.36 1626.6 1621.48 1646.49 1621.48 1666.37 1621.48 1682.49 1605.36 1682.49 1585.48 1682.49 1585.48 1682.49 1585.48 1682.49 1585.48 1682.49 1565.6 1666.39 1549.49 1646.52 1549.48 1646.51 1549.48 1646.5 1549.48 1646.49 1549.48ZM1650.44 1600.76 1644.96 1600.76 1644.96 1574.61C1644.5 1574.92 1644.01 1575.23 1643.49 1575.52 1642.98 1575.81 1642.45 1576.08 1641.91 1576.31 1641.32 1576.54 1640.7 1576.75 1640.05 1576.95 1639.4 1577.15 1638.69 1577.35 1637.91 1577.53L1637.91 1573.16C1638.43 1573.01 1638.91 1572.87 1639.34 1572.72 1639.77 1572.57 1640.2 1572.43 1640.62 1572.28 1641.03 1572.11 1641.46 1571.94 1641.88 1571.76 1642.29 1571.58 1642.71 1571.41 1643.13 1571.24 1643.53 1571.03 1643.94 1570.82 1644.34 1570.61 1644.75 1570.4 1645.16 1570.18 1645.56 1569.95 1646 1569.72 1646.44 1569.46 1646.86 1569.19 1647.29 1568.91 1647.73 1568.66 1648.17 1568.43L1650.44 1568.43Z" fill="#6D62D2"/></g></g></g></g></svg>