<svg width="96" height="96" xmlns="http://www.w3.org/2000/svg" xmlns:xlink="http://www.w3.org/1999/xlink" xml:space="preserve" overflow="hidden"><g transform="translate(-312 -626)"><path d="M362.41 667 370.57 675.16C372.572 672.886 373.776 670.021 374 667Z" fill="#6D62D2"/><path d="M359 666.41 359 652.05C351.286 652.58 345.463 659.263 345.993 666.977 346.524 674.691 353.207 680.514 360.921 679.984 363.966 679.775 366.859 678.576 369.16 676.57Z" fill="#6D62D2"/><path d="M361 665 374 665C373.494 658.049 367.953 652.529 361 652.05Z" fill="#6D62D2"/><path d="M388 648 388 684 332 684 332 648ZM396 686 394 686 394 645 396 645C397.105 645 398 644.105 398 643 398 641.895 397.105 641 396 641L362 641 362 639C362 637.895 361.105 637 360 637 358.895 637 358 637.895 358 639L358 641 324 641C322.895 641 322 641.895 322 643 322 644.105 322.895 645 324 645L326 645 326 686 324 686C322.895 686 322 686.895 322 688 322 689.105 322.895 690 324 690L354.54 690 339.14 705.4C338.358 706.19 338.365 707.464 339.155 708.245 339.945 709.026 341.219 709.02 342 708.23L358 692.23 358 710C358 711.105 358.895 712 360 712 361.105 712 362 711.105 362 710L362 692.2 378 708.2C378.781 708.982 380.048 708.982 380.83 708.2 381.612 707.419 381.612 706.151 380.83 705.37L365.46 690 396 690C397.105 690 398 689.105 398 688 398 686.895 397.105 686 396 686Z" fill="#6D62D2"/></g></svg>