<svg width="96" height="96" xmlns="http://www.w3.org/2000/svg" xmlns:xlink="http://www.w3.org/1999/xlink" xml:space="preserve" overflow="hidden"><g transform="translate(-38 5)"><path d="M59 27.19C61.7614 27.19 64 24.9514 64 22.19 64 19.4286 61.7614 17.19 59 17.19 56.2386 17.19 54 19.4286 54 22.19 54 24.9514 56.2386 27.19 59 27.19Z" fill="#6D62D2"/><path d="M65.52 38.52C65.951 38.8309 66.4686 38.9988 67 39L74 39C75.3807 39 76.5 37.8807 76.5 36.5 76.5 35.1193 75.3807 34 74 34L67.82 34 63.06 30.51C62.0205 29.0817 60.2962 28.3187 58.54 28.51 55.9526 28.8317 54.0245 31.0531 54.07 33.66L54.07 48C54.07 50.7614 56.3086 53 59.07 53L64 53 64 53 70 53 70 65.72C70 67.1007 71.1193 68.22 72.5 68.22 73.8807 68.22 75 67.1007 75 65.72L75 50.47C75 49.0893 73.8807 47.97 72.5 47.97L64 47.97 64 37.39Z" fill="#6D62D2"/><path d="M113 27.19C115.761 27.19 118 24.9514 118 22.19 118 19.4286 115.761 17.19 113 17.19 110.239 17.19 108 19.4286 108 22.19 108 24.9514 110.239 27.19 113 27.19Z" fill="#6D62D2"/><path d="M113.46 28.46C111.704 28.2687 109.979 29.0317 108.94 30.46L104.18 34 98 34C96.6193 34 95.5 35.1193 95.5 36.5 95.5 37.8807 96.6193 39 98 39L105 39C105.531 38.9988 106.049 38.8309 106.48 38.52L108 37.39 108 48 99.53 48C98.1493 48 97.03 49.1193 97.03 50.5L97.03 65.72C97.03 67.1007 98.1493 68.22 99.53 68.22 100.911 68.22 102.03 67.1007 102.03 65.72L102.03 53 108.03 53 108.03 53 112.91 53C115.671 53 117.91 50.7614 117.91 48L117.91 33.61C117.957 31.0098 116.039 28.791 113.46 28.46Z" fill="#6D62D2"/><path d="M103 41 69 41C67.8954 41 67 41.8954 67 43 67 44.1046 67.8954 45 69 45L84 45 84 65 78 65 78 69 94 69 94 65 88 65 88 45 103 45C104.105 45 105 44.1046 105 43 105 41.8954 104.105 41 103 41Z" fill="#6D62D2"/><path d="M66 55 52 55 52 35C52 33.8954 51.1046 33 50 33 48.8954 33 48 33.8954 48 35L48 57C48 58.1046 48.8954 59 50 59L56 59 56 65 52 65 52 69 64 69 64 65 60 65 60 59 66 59C67.1046 59 68 58.1046 68 57 68 55.8954 67.1046 55 66 55Z" fill="#6D62D2"/><path d="M122 33.5C120.895 33.5 120 34.3954 120 35.5L120 55 106 55C104.895 55 104 55.8954 104 57 104 58.1046 104.895 59 106 59L112 59 112 65 108 65 108 69 120 69 120 65 116 65 116 59 122 59C123.105 59 124 58.1046 124 57L124 35.5C124 34.3954 123.105 33.5 122 33.5Z" fill="#6D62D2"/></g></svg>