<svg width="96" height="96" xmlns="http://www.w3.org/2000/svg" xmlns:xlink="http://www.w3.org/1999/xlink" xml:space="preserve" overflow="hidden"><g transform="translate(-102 -116)"><path d="M161.3 153.3C157.1 153.3 153.8 149.9 153.8 145.8 153.8 141.7 157.2 138.3 161.3 138.3 165.5 138.3 168.8 141.7 168.8 145.8 168.8 149.9 165.4 153.3 161.3 153.3ZM178.2 141.1C177.8 139.7 177.3 138.4 176.6 137.2L178.2 132.5 174.6 128.9 169.9 130.5C168.7 129.8 167.4 129.3 166 128.9L163.8 124.5 158.8 124.5 156.6 128.9C155.2 129.3 153.9 129.8 152.7 130.5L148 128.9 144.4 132.5 146 137.2C145.3 138.4 144.8 139.7 144.4 141.1L140 143.3 140 148.3 144.4 150.5C144.8 151.9 145.3 153.2 146 154.4L144.4 159.1 147.9 162.6 152.6 161C153.8 161.7 155.1 162.2 156.5 162.6L158.7 167 163.7 167 165.9 162.6C167.3 162.2 168.6 161.7 169.8 161L174.5 162.6 178.1 159.1 176.5 154.4C177.2 153.2 177.8 151.8 178.2 150.5L182.6 148.3 182.6 143.3 178.2 141.1Z" fill="#6D62D2"/><path d="M138.7 189.7C134.5 189.7 131.2 186.3 131.2 182.2 131.2 178 134.6 174.7 138.7 174.7 142.9 174.7 146.2 178.1 146.2 182.2 146.2 186.3 142.9 189.7 138.7 189.7L138.7 189.7ZM154 173.6 155.6 168.9 152 165.3 147.3 166.9C146.1 166.2 144.7 165.7 143.4 165.3L141.2 160.9 136.2 160.9 134 165.3C132.6 165.7 131.3 166.2 130.1 166.9L125.4 165.3 121.9 168.8 123.4 173.5C122.7 174.7 122.2 176.1 121.8 177.4L117.4 179.6 117.4 184.6 121.8 186.8C122.2 188.2 122.7 189.5 123.4 190.7L121.9 195.4 125.4 198.9 130.1 197.4C131.3 198.1 132.6 198.6 134 199L136.2 203.4 141.2 203.4 143.4 199C144.8 198.6 146.1 198.1 147.3 197.4L152 199 155.5 195.4 154 190.8C154.7 189.6 155.2 188.3 155.6 186.9L160 184.7 160 179.7 155.6 177.5C155.2 176.1 154.7 174.8 154 173.6Z" fill="#6D62D2"/></g></svg>