<svg width="96" height="96" xmlns="http://www.w3.org/2000/svg" xmlns:xlink="http://www.w3.org/1999/xlink" xml:space="preserve" overflow="hidden"><g transform="translate(-19 -305)"><path d="M64.222 355.879 58.565 350.222 64.222 344.565 69.879 350.222C71.0602 351.384 72.9596 351.368 74.1215 350.187 75.27 349.019 75.2698 347.146 74.121 345.979L68.464 340.323 72 336.787 64.929 329.716C59.8968 324.682 52.0197 323.878 46.074 327.791L43.755 325.391C38.6581 320.146 31.6605 317.18 24.347 317.163L21 317.163 21 323.163 24.347 323.163C30.0371 323.174 35.4818 325.482 39.447 329.563L41.829 332.027C37.8824 337.975 38.6737 345.88 43.721 350.927L50.787 358 54.323 354.464 59.979 360.121C61.1599 361.283 63.0594 361.268 64.2215 360.087 65.3703 358.92 65.3705 357.047 64.222 355.879Z" fill="#6D62D2"/><path d="M109.707 383C104.256 383.011 99.0172 380.892 95.107 377.095L92.372 374.449C96.2825 368.503 95.4781 360.627 90.446 355.594L83.375 348.523 62.163 369.737 69.234 376.808C74.2816 381.855 82.1865 382.646 88.134 378.699L90.934 381.408C95.9618 386.29 102.699 389.015 109.707 389L113 389 113 383Z" fill="#6D62D2"/></g></svg>